<svg xmlns="http://www.w3.org/2000/svg" width="177" height="177" viewBox="0 0 177 177">
  <g id="logo" transform="translate(-182.548 -255.293)">
    <circle id="Ellipse_7" data-name="Ellipse 7" cx="88" cy="88" r="88" transform="translate(183.048 255.793)" fill="#009cdc" stroke="#fff" stroke-miterlimit="10" stroke-width="1"/>
    <path id="Path_8" data-name="Path 8" d="M198.145,281.375l135.609,9.095a85.254,85.254,0,0,1-27.172,78.3A88.038,88.038,0,0,1,278.448,385.9L198.605,328.73c-.771-9.876-1.132-20.03-1.007-30.447.01-.736.02-1.472.035-2.206" transform="translate(21.849 38.477)" fill="#0083d0"/>
    <path id="Path_9" data-name="Path 9" d="M299.293,316.151l-48.512,1.142-.766-29.175h7.337l21.9-8.649-21.9-6.791H249.8l-.331-2.737h-7.773v2.519l-17.959.218v15.44s16.317-1.094,17.083,0c.3.428.363,13.525.333,29.345l-28.186.6a104.394,104.394,0,0,1,.766-18.287l-15.548-1.2s-1.7,37.283.463,47.167l16.289-1.613L212.308,326.5l28.815.318c-.088,22.647-.305,46.829-.305,46.829s8.541,1.643,10.84,0l-.766-46.869,47.963.22S301.592,319.875,299.293,316.151Z" transform="translate(21.811 21.279)" fill="#fff"/>
  </g>
</svg>
